HIERARCHY
ROOT mixamorig:Hips
{
	OFFSET 0.000000 201.639420 0.000000
	CHANNELS 6 Xposition Yposition Zposition Xrotation Yrotation Zrotation
	JOINT mixamorig:Spine
	{
		OFFSET 0.006200 19.524994 -2.481800
		CHANNELS 3 Xrotation Yrotation Zrotation
		JOINT mixamorig:Spine1
		{
			OFFSET -0.000900 22.835007 -2.825400
			CHANNELS 3 Xrotation Yrotation Zrotation
			JOINT mixamorig:Spine2
			{
				OFFSET -0.020600 26.552490 -3.193300
				CHANNELS 3 Xrotation Yrotation Zrotation
				JOINT mixamorig:Neck
				{
					OFFSET -0.060000 30.701813 1.352200
					CHANNELS 3 Xrotation Yrotation Zrotation
					JOINT mixamorig:Head
					{
						OFFSET -0.087200 22.547607 3.670900
						CHANNELS 3 Xrotation Yrotation Zrotation
						JOINT mixamorig:HeadTop_End
						{
							OFFSET -0.830600 40.355194 7.893500
							CHANNELS 3 Xrotation Yrotation Zrotation
							End Site
							{
								OFFSET 0.000000 30.592346 0.000000
							}
						}
						JOINT mixamorig:RightEye
						{
							OFFSET -6.302100 18.118591 16.197100
							CHANNELS 3 Xrotation Yrotation Zrotation
							End Site
							{
								OFFSET 0.000000 30.592346 0.000000
							}
						}
						JOINT mixamorig:LeftEye
						{
							OFFSET 6.741500 18.382690 16.401899
							CHANNELS 3 Xrotation Yrotation Zrotation
							End Site
							{
								OFFSET 0.000000 30.592346 0.000000
							}
						}
					}
				}
				JOINT mixamorig:LeftShoulder
				{
					OFFSET 11.924900 18.230499 1.425400
					CHANNELS 3 Xrotation Yrotation Zrotation
					JOINT mixamorig:LeftArm
					{
						OFFSET 25.435989 -0.697632 -5.229300
						CHANNELS 3 Xrotation Yrotation Zrotation
						JOINT mixamorig:LeftForeArm
						{
							OFFSET 54.684776 0.000000 0.000000
							CHANNELS 3 Xrotation Yrotation Zrotation
							JOINT mixamorig:LeftHand
							{
								OFFSET 55.098175 0.000000 0.000000
								CHANNELS 3 Xrotation Yrotation Zrotation
								JOINT mixamorig:LeftHandMiddle1
								{
									OFFSET 23.369751 0.000000 0.000000
									CHANNELS 3 Xrotation Yrotation Zrotation
									JOINT mixamorig:LeftHandMiddle2
									{
										OFFSET 6.378677 0.000000 0.000000
										CHANNELS 3 Xrotation Yrotation Zrotation
										JOINT mixamorig:LeftHandMiddle3
										{
											OFFSET 6.148331 0.000000 0.000000
											CHANNELS 3 Xrotation Yrotation Zrotation
											JOINT mixamorig:LeftHandMiddle4
											{
												OFFSET 6.582504 0.000000 0.000000
												CHANNELS 3 Xrotation Yrotation Zrotation
												End Site
												{
													OFFSET -1.168900 6.395691 1.028606
												}
											}
										}
									}
								}
								JOINT mixamorig:LeftHandThumb1
								{
									OFFSET 7.235672 -3.848206 5.434273
									CHANNELS 3 Xrotation Yrotation Zrotation
									JOINT mixamorig:LeftHandThumb2
									{
										OFFSET 6.568451 -3.792297 3.792300
										CHANNELS 3 Xrotation Yrotation Zrotation
										JOINT mixamorig:LeftHandThumb3
										{
											OFFSET 6.063080 -3.500519 3.500518
											CHANNELS 3 Xrotation Yrotation Zrotation
											JOINT mixamorig:LeftHandThumb4
											{
												OFFSET 4.793182 -2.767334 2.767349
												CHANNELS 3 Xrotation Yrotation Zrotation
												End Site
												{
													OFFSET 0.101639 6.054260 1.275483
												}
											}
										}
									}
								}
								JOINT mixamorig:LeftHandIndex1
								{
									OFFSET 23.101074 -0.309540 4.992809
									CHANNELS 3 Xrotation Yrotation Zrotation
									JOINT mixamorig:LeftHandIndex2
									{
										OFFSET 6.226883 0.000000 0.000000
										CHANNELS 3 Xrotation Yrotation Zrotation
										JOINT mixamorig:LeftHandIndex3
										{
											OFFSET 6.094330 0.000000 0.000000
											CHANNELS 3 Xrotation Yrotation Zrotation
											JOINT mixamorig:LeftHandIndex4
											{
												OFFSET 5.482605 0.000000 0.000000
												CHANNELS 3 Xrotation Yrotation Zrotation
												End Site
												{
													OFFSET -1.427902 5.233032 0.797164
												}
											}
										}
									}
								}
								JOINT mixamorig:LeftHandRing1
								{
									OFFSET 22.299240 0.021149 -3.964172
									CHANNELS 3 Xrotation Yrotation Zrotation
									JOINT mixamorig:LeftHandRing2
									{
										OFFSET 6.321869 0.000000 0.000000
										CHANNELS 3 Xrotation Yrotation Zrotation
										JOINT mixamorig:LeftHandRing3
										{
											OFFSET 5.899796 0.000000 0.000000
											CHANNELS 3 Xrotation Yrotation Zrotation
											JOINT mixamorig:LeftHandRing4
											{
												OFFSET 6.517899 0.000000 0.000000
												CHANNELS 3 Xrotation Yrotation Zrotation
												End Site
												{
													OFFSET -1.637299 6.232208 0.980890
												}
											}
										}
									}
								}
								JOINT mixamorig:LeftHandPinky1
								{
									OFFSET 20.463791 -0.302338 -8.562233
									CHANNELS 3 Xrotation Yrotation Zrotation
									JOINT mixamorig:LeftHandPinky2
									{
										OFFSET 6.908646 0.000000 0.000000
										CHANNELS 3 Xrotation Yrotation Zrotation
										JOINT mixamorig:LeftHandPinky3
										{
											OFFSET 4.622849 0.000000 0.000000
											CHANNELS 3 Xrotation Yrotation Zrotation
											JOINT mixamorig:LeftHandPinky4
											{
												OFFSET 5.216080 0.000000 0.000000
												CHANNELS 3 Xrotation Yrotation Zrotation
												End Site
												{
													OFFSET -0.606308 5.116241 0.814926
												}
											}
										}
									}
								}
							}
						}
					}
				}
				JOINT mixamorig:RightShoulder
				{
					OFFSET -12.001300 18.284088 1.348900
					CHANNELS 3 Xrotation Yrotation Zrotation
					JOINT mixamorig:RightArm
					{
						OFFSET -25.308500 -0.751312 -5.164599
						CHANNELS 3 Xrotation Yrotation Zrotation
						JOINT mixamorig:RightForeArm
						{
							OFFSET -54.684429 0.000000 0.000000
							CHANNELS 3 Xrotation Yrotation Zrotation
							JOINT mixamorig:RightHand
							{
								OFFSET -55.150291 0.000000 0.000000
								CHANNELS 3 Xrotation Yrotation Zrotation
								JOINT mixamorig:RightHandMiddle1
								{
									OFFSET -23.317566 0.000000 0.000000
									CHANNELS 3 Xrotation Yrotation Zrotation
									JOINT mixamorig:RightHandMiddle2
									{
										OFFSET -6.378403 0.000000 0.000000
										CHANNELS 3 Xrotation Yrotation Zrotation
										JOINT mixamorig:RightHandMiddle3
										{
											OFFSET -6.148193 0.000000 0.000000
											CHANNELS 3 Xrotation Yrotation Zrotation
											JOINT mixamorig:RightHandMiddle4
											{
												OFFSET -6.583389 0.000000 0.000000
												CHANNELS 3 Xrotation Yrotation Zrotation
												End Site
												{
													OFFSET 1.171692 6.395905 1.029786
												}
											}
										}
									}
								}
								JOINT mixamorig:RightHandThumb1
								{
									OFFSET -7.190521 -3.860474 5.435846
									CHANNELS 3 Xrotation Yrotation Zrotation
									JOINT mixamorig:RightHandThumb2
									{
										OFFSET -6.567429 -3.791718 3.791708
										CHANNELS 3 Xrotation Yrotation Zrotation
										JOINT mixamorig:RightHandThumb3
										{
											OFFSET -6.062469 -3.500153 3.500166
											CHANNELS 3 Xrotation Yrotation Zrotation
											JOINT mixamorig:RightHandThumb4
											{
												OFFSET -4.792618 -2.767029 2.767022
												CHANNELS 3 Xrotation Yrotation Zrotation
												End Site
												{
													OFFSET -0.100327 6.053253 1.276754
												}
											}
										}
									}
								}
								JOINT mixamorig:RightHandIndex1
								{
									OFFSET -23.048981 -0.310791 4.992554
									CHANNELS 3 Xrotation Yrotation Zrotation
									JOINT mixamorig:RightHandIndex2
									{
										OFFSET -6.227539 0.000000 0.000000
										CHANNELS 3 Xrotation Yrotation Zrotation
										JOINT mixamorig:RightHandIndex3
										{
											OFFSET -6.095047 0.000000 0.000000
											CHANNELS 3 Xrotation Yrotation Zrotation
											JOINT mixamorig:RightHandIndex4
											{
												OFFSET -5.484772 0.000000 0.000000
												CHANNELS 3 Xrotation Yrotation Zrotation
												End Site
												{
													OFFSET 1.420593 5.237305 0.797056
												}
											}
										}
									}
								}
								JOINT mixamorig:RightHandRing1
								{
									OFFSET -22.246323 0.020569 -3.963762
									CHANNELS 3 Xrotation Yrotation Zrotation
									JOINT mixamorig:RightHandRing2
									{
										OFFSET -6.322128 0.000000 0.000000
										CHANNELS 3 Xrotation Yrotation Zrotation
										JOINT mixamorig:RightHandRing3
										{
											OFFSET -5.900024 0.000000 0.000000
											CHANNELS 3 Xrotation Yrotation Zrotation
											JOINT mixamorig:RightHandRing4
											{
												OFFSET -6.518356 0.000000 0.000000
												CHANNELS 3 Xrotation Yrotation Zrotation
												End Site
												{
													OFFSET 1.636398 6.232697 0.982186
												}
											}
										}
									}
								}
								JOINT mixamorig:RightHandPinky1
								{
									OFFSET -20.411011 -0.303314 -8.561701
									CHANNELS 3 Xrotation Yrotation Zrotation
									JOINT mixamorig:RightHandPinky2
									{
										OFFSET -6.907349 0.000000 0.000000
										CHANNELS 3 Xrotation Yrotation Zrotation
										JOINT mixamorig:RightHandPinky3
										{
											OFFSET -4.623840 0.000000 0.000000
											CHANNELS 3 Xrotation Yrotation Zrotation
											JOINT mixamorig:RightHandPinky4
											{
												OFFSET -5.218353 0.000000 0.000000
												CHANNELS 3 Xrotation Yrotation Zrotation
												End Site
												{
													OFFSET 0.602097 5.118835 0.816273
												}
											}
										}
									}
								}
							}
						}
					}
				}
			}
		}
	}
	JOINT mixamorig:LeftUpLeg
	{
		OFFSET 18.168400 -13.561905 -0.039000
		CHANNELS 3 Xrotation Yrotation Zrotation
		JOINT mixamorig:LeftLeg
		{
			OFFSET 0.577358 -80.825211 -3.695000
			CHANNELS 3 Xrotation Yrotation Zrotation
			JOINT mixamorig:LeftFoot
			{
				OFFSET -0.577356 -83.370262 -6.520700
				CHANNELS 3 Xrotation Yrotation Zrotation
				JOINT mixamorig:LeftToeBase
				{
					OFFSET 0.750401 -20.798306 25.135401
					CHANNELS 3 Xrotation Yrotation Zrotation
					JOINT mixamorig:LeftToe_End
					{
						OFFSET -0.000500 0.001200 19.917799
						CHANNELS 3 Xrotation Yrotation Zrotation
						End Site
						{
							OFFSET 0.000000 19.917805 0.000000
						}
					}
				}
			}
		}
	}
	JOINT mixamorig:RightUpLeg
	{
		OFFSET -18.162500 -13.585098 -0.041000
		CHANNELS 3 Xrotation Yrotation Zrotation
		JOINT mixamorig:RightLeg
		{
			OFFSET -0.595024 -80.945297 -3.631900
			CHANNELS 3 Xrotation Yrotation Zrotation
			JOINT mixamorig:RightFoot
			{
				OFFSET 0.595024 -83.218193 -6.561200
				CHANNELS 3 Xrotation Yrotation Zrotation
				JOINT mixamorig:RightToeBase
				{
					OFFSET -0.753601 -20.807106 25.115000
					CHANNELS 3 Xrotation Yrotation Zrotation
					JOINT mixamorig:RightToe_End
					{
						OFFSET 0.000299 0.001700 19.918200
						CHANNELS 3 Xrotation Yrotation Zrotation
						End Site
						{
							OFFSET 0.000000 19.918203 0.000000
						}
					}
				}
			}
		}
	}
}
MOTION
Frames: 4
Frame Time: 0.033333
-1.624136 199.025330 -0.815946 -3.996131 -2.985552 -4.828053 3.284837 1.735945 1.857601 1.077650 0.713492 0.847866 1.057085 0.752491 0.853086 6.659859 0.261211 -2.495830 -2.940353 2.798508 -5.104724 -0.000001 0.000000 0.000000 -0.000001 0.000000 0.000000 -0.000001 0.000000 0.000000 0.812701 -16.447843 -13.930400 5.304652 -16.898243 -65.138688 0.000001 -0.669835 0.000000 -33.954810 -3.162157 -6.272853 -0.056017 2.620094 -14.281482 0.263619 1.739247 -17.236126 0.295071 1.837517 -18.243934 -0.000001 -0.000001 0.000002 -0.705939 2.064338 4.894148 11.915080 25.548422 17.019880 -13.918172 3.239413 9.013703 0.000002 0.000001 0.000003 -0.015971 -0.901313 -8.256425 0.271741 1.765198 -17.501733 0.059497 0.833723 -8.163909 0.000000 0.000000 -0.000000 0.151706 3.680723 -21.148059 0.390507 2.104916 -21.017860 0.286283 1.810651 -17.967882 -0.000000 -0.000000 -0.000001 0.875817 5.504388 -27.060113 0.269799 1.759029 -17.438530 0.242857 1.670909 -16.538526 0.000000 -0.000001 -0.000000 1.504576 15.634195 13.294241 14.271786 31.205919 61.005228 0.000002 6.969279 0.000020 -20.720919 -0.944250 6.915750 -0.084022 -2.181216 12.352377 0.194293 -1.332505 16.591151 0.218460 -1.411052 17.600431 0.000002 0.000001 0.000001 -1.755993 -0.003597 -4.139516 12.545707 -29.505673 -16.187361 -15.661392 -3.310828 -12.626826 -0.000001 -0.000001 -0.000002 0.070294 1.616931 5.541144 0.193679 -1.330416 16.564421 0.036916 -0.585857 7.211003 0.000001 0.000000 0.000001 0.170433 -3.434646 19.765512 0.307205 -1.665048 20.905971 0.224756 -1.430762 17.854789 -0.000000 0.000001 0.000005 0.808694 -5.016197 25.625360 0.208112 -1.378010 17.175354 0.186982 -1.307720 16.273923 -0.000002 0.000002 -0.000000 -17.081893 13.670931 13.719380 19.145509 -0.522722 4.407020 0.245181 0.263520 -7.862759 -4.928527 0.000006 -0.000002 -0.000000 -0.000001 0.000000 -2.242731 -10.436116 5.003257 11.601752 -10.002631 -3.212406 -4.669147 -3.996217 2.472479 -7.282878 -0.000009 -0.000001 -0.000001 -0.000002 -0.000000 
-1.489191 199.111237 -0.910438 -3.934529 -3.047243 -4.666815 3.301263 1.717488 1.915474 1.098095 0.677645 0.914967 1.077129 0.714855 0.920135 6.706734 0.239576 -2.326897 -3.043003 2.768152 -4.924339 0.000001 -0.000000 -0.000001 0.000001 -0.000000 -0.000001 0.000001 -0.000000 -0.000001 0.831943 -16.570150 -13.797013 5.300742 -17.107047 -65.342248 -0.000001 -0.685054 0.000019 -33.589303 -2.562741 -6.386859 -0.055610 2.654345 -14.662874 0.264882 1.743319 -17.277780 0.296408 1.841568 -18.285639 0.000001 -0.000000 0.000002 -0.669906 2.144130 4.848498 11.907332 25.532483 17.024745 -13.900021 3.291357 9.017614 0.000002 0.000003 0.000005 -0.017809 -0.900725 -8.268118 0.270783 1.762167 -17.470688 0.059047 0.830574 -8.132865 -0.000001 -0.000001 -0.000004 0.149436 3.676499 -21.187983 0.390129 2.103944 -21.007686 0.285985 1.809724 -17.958347 0.000000 -0.000001 0.000003 0.890790 5.520990 -27.128588 0.269358 1.757625 -17.424161 0.242438 1.669497 -16.524143 0.000000 0.000001 0.000002 1.477464 15.711073 13.427876 14.040538 30.688296 60.925684 -0.000004 6.941526 -0.000018 -20.501200 -0.914395 6.607882 -0.115954 -2.154747 13.571150 0.201696 -1.357094 16.906503 0.226295 -1.435493 17.915827 -0.000001 0.000001 -0.000002 -1.725659 -0.057855 -4.179874 12.403375 -29.228121 -16.235269 -15.627509 -3.385985 -12.651115 0.000001 0.000002 0.000003 0.075964 1.555147 5.611651 0.193964 -1.331389 16.576840 0.037047 -0.586850 7.223398 -0.000002 0.000002 0.000001 0.108372 -3.267840 19.944523 0.307387 -1.665514 20.912069 0.224917 -1.431220 17.860726 0.000001 -0.000002 0.000001 0.812773 -5.018583 25.858581 0.208558 -1.379461 17.193939 0.187418 -1.309189 16.292510 -0.000003 -0.000000 0.000000 -16.875784 13.745286 13.435816 18.689694 -0.443198 4.405700 0.482083 0.270103 -7.805883 -4.928528 0.000007 -0.000002 0.000001 0.000000 0.000000 -2.322122 -10.436681 4.788555 11.470046 -10.002862 -3.213951 -4.543641 -3.916357 2.504035 -7.282879 -0.000006 -0.000001 -0.000001 0.000002 0.000000 
-1.337346 199.203842 -1.003092 -3.881063 -3.142023 -4.515266 3.312286 1.698941 1.977926 1.113838 0.641501 0.988250 1.092427 0.676885 0.993324 6.759391 0.213302 -2.150859 -3.166802 2.724730 -4.759709 -0.000000 0.000000 0.000000 -0.000000 0.000000 0.000000 -0.000000 0.000000 0.000000 0.851410 -16.704788 -13.665162 5.215512 -17.254542 -65.627613 -0.000005 -0.667942 -0.000009 -33.314398 -2.011890 -6.458513 -0.053843 2.682373 -14.915902 0.265937 1.746698 -17.312359 0.297520 1.844928 -18.320188 -0.000000 0.000001 0.000006 -0.635913 2.217422 4.819321 11.930829 25.580723 17.010058 -13.889718 3.320824 9.019827 -0.000002 0.000001 -0.000000 -0.007375 -0.890397 -8.249721 0.270680 1.761846 -17.467387 0.059002 0.830242 -8.129597 -0.000000 0.000000 0.000000 0.148477 3.675017 -21.211777 0.390408 2.104665 -21.015211 0.286230 1.810487 -17.966213 0.000000 -0.000000 0.000001 0.897535 5.527331 -27.127753 0.269384 1.757716 -17.425059 0.242465 1.669586 -16.525083 -0.000001 0.000001 0.000002 1.456606 15.729002 13.526992 13.639987 29.979633 60.790453 0.000002 6.855354 -0.000001 -20.381809 -0.984589 6.729313 -0.130990 -2.166870 14.358997 0.206259 -1.371976 17.097772 0.231109 -1.450304 18.107112 0.000003 0.000001 0.000001 -1.740412 -0.020310 -4.217680 12.362558 -29.148362 -16.248716 -15.620001 -3.402689 -12.656539 0.000001 -0.000001 0.000001 0.062744 1.459495 5.998118 0.194232 -1.332310 16.588796 0.037169 -0.587816 7.235338 -0.000002 -0.000001 -0.000001 0.076585 -3.187555 20.142124 0.306535 -1.663305 20.883006 0.224180 -1.428957 17.831624 -0.000000 0.000001 0.000001 0.789653 -4.969912 26.067869 0.209000 -1.380902 17.212464 0.187834 -1.310630 16.311047 -0.000003 0.000004 -0.000005 -16.644553 13.817401 13.157005 18.215151 -0.329268 4.400584 0.722020 0.277401 -7.747359 -4.928527 0.000006 -0.000002 -0.000000 -0.000000 0.000000 -2.367977 -10.435440 4.579391 11.283151 -10.003359 -3.216567 -4.387868 -3.799543 2.537183 -7.282878 -0.000003 -0.000001 0.000000 0.000000 0.000000 
-1.179469 199.293930 -1.084952 -3.838764 -3.262028 -4.375443 3.321359 1.686011 2.040340 1.128048 0.614100 1.062117 1.106166 0.647689 1.067149 6.807156 0.180809 -1.971628 -3.281413 2.649781 -4.602485 0.000000 0.000000 0.000000 0.000000 0.000000 0.000000 0.000000 0.000000 0.000000 0.871578 -16.825485 -13.528506 5.066632 -17.380875 -65.983370 -0.000005 -0.643247 0.000001 -33.134368 -1.681030 -6.423573 -0.056529 2.685587 -15.075665 0.266810 1.749499 -17.340978 0.298443 1.847711 -18.348839 -0.000001 -0.000000 0.000002 -0.640109 2.207527 4.830055 11.940985 25.601543 17.003734 -13.883248 3.339271 9.021188 -0.000001 0.000004 0.000002 0.004650 -0.879758 -8.236891 0.270475 1.761191 -17.460673 0.058905 0.829564 -8.122918 -0.000002 0.000000 -0.000002 0.147098 3.673145 -21.252228 0.390414 2.104675 -21.015333 0.286248 1.810548 -17.966814 0.000000 -0.000000 -0.000001 0.893444 5.522844 -27.109938 0.269746 1.758871 -17.436908 0.242812 1.670748 -16.536895 -0.000001 0.000001 0.000002 1.438214 15.752836 13.614943 13.298659 29.369728 60.487479 0.000005 6.765657 -0.000008 -20.368025 -1.090171 6.984221 -0.131327 -2.192574 14.653949 0.207871 -1.377267 17.165539 0.232826 -1.455551 18.174940 0.000003 -0.000000 -0.000002 -1.731467 -0.042922 -4.195738 12.492687 -29.402728 -16.204877 -15.624073 -3.393588 -12.653579 -0.000006 0.000000 -0.000001 0.049356 1.372313 6.380033 0.197399 -1.342868 16.724063 0.038557 -0.598740 7.370577 -0.000002 0.000000 -0.000001 0.066001 -3.164351 20.286936 0.306769 -1.663896 20.890904 0.224377 -1.429588 17.839500 -0.000001 0.000001 0.000003 0.765001 -4.920749 26.193816 0.207380 -1.375658 17.144970 0.186295 -1.305346 16.243563 0.000002 0.000001 0.000002 -16.402962 13.883969 12.893080 17.756200 -0.189319 4.392261 0.946919 0.285153 -7.690446 -4.928527 0.000008 -0.000001 0.000000 -0.000001 -0.000000 -2.394988 -10.432812 4.378588 11.086154 -10.003994 -3.220035 -4.228724 -3.657203 2.572916 -7.282878 -0.000008 -0.000001 -0.000000 -0.000001 -0.000000 
